<svg xmlns="http://www.w3.org/2000/svg" width="23" height="23" viewBox="0 0 23 23"><g><g><path fill="#fff" d="M19.126 19.834h-3.283v-5.142c0-1.227-.025-2.804-1.706-2.804-1.71 0-1.973 1.335-1.973 2.715v5.23H8.881V9.264h3.15v1.444h.044C12.515 9.876 13.588 9 15.185 9c3.323 0 3.94 2.19 3.94 5.038zM5.178 7.819a1.904 1.904 0 0 1 0-3.807c1.048 0 1.904.855 1.904 1.904 0 1.053-.85 1.903-1.904 1.903zM3.537 19.834V9.263h3.288v10.57zM20.693.848H1.703C.831.848.124 1.565.124 2.445V21.4c0 .88.707 1.597 1.577 1.597h18.991c.87 0 1.582-.717 1.582-1.597V2.445c0-.88-.712-1.597-1.582-1.597z"/></g></g></svg>